<svg xmlns="http://www.w3.org/2000/svg" viewBox="0 0 32 32" width="32" height="32">
  <path fill="#5C1010" d="M7 0h18C28.867 0 32 3.133 32 7v18C32 28.867 28.867 32 25 32H7C3.133 32 0 28.867 0 25V7C0 3.133 3.133 0 7 0z"/>
  <path fill="#F5ECD7" fill-rule="nonzero" d="M0.9999999999999991 6.079491255961845Q2.359300476947535 5.507154213036568 3.360890302066772 5.507154213036568Q4.362480127186009 5.507154213036568 5.125596184419713 5.697933227344993Q5.888712241653417 5.888712241653419 6.687599364069952 6.3298887122416545Q7.486486486486486 6.77106518282989 8.17806041335453 7.414944356120827Q9.513513513513512 8.67885532591415 10.443561208267091 10.276629570747218L15.213036565977744 19.21939586645469L22.128775834658185 7.3195548489666145H22.34340222575517L24.82352941176471 21.34181240063593Q25.395866454689987 24.585055643879176 26.80286168521463 26.492845786963436Q28.209856915739273 28.42448330683625 30.666136724960253 28.42448330683625Q30.833068362480127 28.42448330683625 30.976152623211448 28.42448330683625V28.66295707472178Q29.66454689984102 29.02066772655008 28.4006359300477 29.02066772655008Q25.825119236883943 29.02066772655008 23.7027027027027 26.993640699523056Q21.651828298887125 25.06200317965024 20.912559618441975 21.34181240063593L19.744038155802862 14.402225755166933L15.26073131955485 22.176470588235297Q14.354531001589825 23.67885532591415 14.330683624801273 24.823529411764707H14.116057233704293L8.17806041335453 13.567567567567568L7.009538950715421 23.106518282988873Q6.9379968203497615 23.655007949125597 7.486486486486486 23.988871224165344Q7.701112877583466 24.131955484896665 7.9395866454689985 24.131955484896665H8.32114467408585V24.346581875993643H3.3370429252782188V24.10810810810811H3.718600953895071Q4.338632750397456 24.10810810810811 4.827503974562798 23.738473767885534Q5.31637519872814 23.36883942766296 5.435612082670906 22.72496025437202L7.0572337042925275 11.349761526232115Q5.984101748807631 9.441971383147855 4.600953895071542 7.963434022257552Q3.05087440381558 6.2941176470588225 1.3577106518282982 6.2941176470588225Q1.1907790143084256 6.2941176470588225 1.047694753577106 6.317965023847378Z"/>
</svg>